<svg data-v-fde0c5aa="" xmlns="http://www.w3.org/2000/svg" viewBox="0 0 300 300" class="iconAbove"><!----><defs data-v-fde0c5aa=""><!----></defs><rect data-v-fde0c5aa="" fill="transparent" x="0" y="0" width="300px" height="300px" class="logo-background-square"></rect><defs data-v-fde0c5aa=""><!----></defs><g data-v-fde0c5aa="" id="241ad56f-ec98-41d3-8c35-7d4416488a47" fill="#000000"><path d=""></path></g><defs data-v-fde0c5aa=""><linearGradient data-v-fde0c5aa="" gradientTransform="rotate(25)" id="9e3a8c7c-389f-4292-9466-c0a84bcd2897" x1="0%" y1="0%" x2="100%" y2="0%"><stop data-v-fde0c5aa="" offset="0%" stop-color="#70243D" stop-opacity="1"></stop><stop data-v-fde0c5aa="" offset="100%" stop-color="#C15767" stop-opacity="1"></stop></linearGradient></defs><g data-v-fde0c5aa="" id="afdd7f8a-2310-463b-bd20-eb7abea1f29a" stroke="none" fill="url(#9e3a8c7c-389f-4292-9466-c0a84bcd2897)"><switch><g><path d="M62.7 39.6c-1.2-.1-2.3.5-2.9 1.6l-5.1 9.6c-1.4-.2-3-.2-4.7-.2-1.8 0-3.3.1-4.7.2l-5.1-9.6c-.6-1.1-1.7-1.7-2.9-1.6-1.2.1-2.2.9-2.6 2.1-3.3 10.3-3.8 16.9-1.5 19.5.3.4.7.6 1.1.9v6.4c0 1.5-.2 3-.5 4.9-.1.5-.1 1-.1 1.6 0 4.6 2.1 7.3 6.1 8 1.2.2 2.4.2 3.5.3h1.2c1.6 0 3.2-.7 4.6-2 .3-.3.7-.7.9-1.1.3.4.6.7.9 1.1 1.4 1.4 3.1 2.1 4.8 2h1c1.1 0 2.3 0 3.5-.3 4.1-.7 6.1-3.4 6.1-8 0-.6 0-1.1-.1-1.6-.3-1.8-.5-3.3-.5-4.9v-2.6-3.7c.4-.3.8-.5 1.1-.9 2.3-2.6 1.8-9.1-1.5-19.5-.3-1.3-1.4-2.1-2.6-2.2zM35.3 56.4c0-2.5.6-6.6 2.3-12.4l3.9 7.4c-2 .6-3.5 1.4-4.7 2.6-.6.7-1.1 1.5-1.5 2.4zm24.3 22.9c-.9.2-1.9.2-2.9.2h-1.1c-.8 0-1.5-.3-2.2-1-.9-.9-1.4-2-1.5-2.7l1.6-2.2c1-1.4 0-3.3-1.7-3.3h-3.6c-1.7 0-2.6 1.9-1.7 3.3l1.6 2.2c-.2.7-.6 1.8-1.5 2.7-.7.7-1.4.9-2.2 1h-1.1c-1 0-2 0-2.9-.2-1.5-.3-3.2-.9-3.2-4.5 0-.3 0-.7.1-1 .3-1.7.6-3.6.5-5.5v-2.6c0-4.3-.1-7.4 1.7-9.2 1.6-1.6 5.1-2.4 10.5-2.4 5.5 0 8.9.8 10.5 2.4 1.8 1.8 1.8 4.9 1.7 9.2v2.6c0 1.9.2 3.8.5 5.5.1.3.1.6.1 1 0 3.6-1.6 4.2-3.2 4.5zM63 54c-1.1-1.2-2.7-2-4.7-2.6l4-7.4c1.7 5.8 2.4 9.9 2.3 12.4-.3-.9-.8-1.7-1.6-2.4z"></path><circle cx="55.4" cy="63.2" r="2.6"></circle><circle cx="44.6" cy="63.2" r="2.6"></circle><path d="M96.8 46.1l-46-29c-.5-.3-1.1-.3-1.6 0l-46 29c-.7.4-.9 1.3-.5 2L4.6 51c.4.7 1.3.9 2 .5l11.2-7.1v37.3c0 .8.6 1.4 1.4 1.4h3.5c.8 0 1.4-.6 1.4-1.4V40.4L50 24.1l25.9 16.3v41.3c0 .8.6 1.4 1.4 1.4h3.5c.8 0 1.4-.6 1.4-1.4V44.4l11.2 7.1c.7.4 1.6.2 2-.5l1.9-2.9c.4-.7.2-1.6-.5-2z"></path></g></switch></g><!----></svg>