<svg data-v-423bf9ae="" xmlns="http://www.w3.org/2000/svg" viewBox="0 0 544.2596686958523 163" class="iconAbove"><!----><!----><!----><g data-v-423bf9ae="" id="c240cb21-bed2-4d93-a631-f31c01d14c7c" fill="#3B1B1B" transform="matrix(6.08519290965367,0,0,6.08519290965367,-7.606488448860375,79.14604476040572)"><path d="M3.18 5.43L8.08 5.43L8.08 3.92L1.25 3.92L1.25 13.58L3.18 13.58L3.18 9.51L7.59 9.51L7.59 7.98L3.18 7.98ZM12.54 5.94C10.07 5.94 8.68 7.59 8.68 9.86C8.68 12.11 10.07 13.78 12.54 13.78C15.02 13.78 16.41 12.11 16.41 9.86C16.41 7.59 15.02 5.94 12.54 5.94ZM12.54 12.42C11.38 12.42 10.68 11.45 10.68 9.86C10.68 8.25 11.38 7.29 12.54 7.29C13.71 7.29 14.41 8.25 14.41 9.86C14.41 11.45 13.71 12.42 12.54 12.42ZM21.46 5.95C21.04 5.95 20.55 6.12 20.19 6.45L19.60 7.49L19.60 6.13L17.67 6.13L17.67 13.58L19.60 13.58L19.60 10.16C19.60 8.16 20.40 7.45 22.01 7.56L22.01 6.01C21.84 5.96 21.69 5.95 21.46 5.95ZM29.68 9.70C29.68 7.67 28.48 5.94 26.19 5.94C23.91 5.94 22.41 7.60 22.41 9.88C22.41 12.50 24.00 13.78 26.04 13.78C27.79 13.78 29.19 12.89 29.57 11.16L27.64 11.16C27.51 11.96 26.91 12.42 26.08 12.42C25.19 12.42 24.49 11.93 24.36 10.36L29.65 10.36C29.68 10.11 29.68 9.88 29.68 9.70ZM26.11 7.29C27.03 7.29 27.57 7.92 27.69 9.10L24.42 9.10C24.58 7.87 25.21 7.29 26.11 7.29ZM38.07 6.13L35.98 6.13L34.15 12.12L32.27 6.13L30.13 6.13L33.03 13.58L35.18 13.58ZM45.44 9.70C45.44 7.67 44.24 5.94 41.96 5.94C39.68 5.94 38.18 7.60 38.18 9.88C38.18 12.50 39.76 13.78 41.80 13.78C43.55 13.78 44.95 12.89 45.33 11.16L43.40 11.16C43.27 11.96 42.67 12.42 41.85 12.42C40.95 12.42 40.25 11.93 40.12 10.36L45.42 10.36C45.44 10.11 45.44 9.88 45.44 9.70ZM41.87 7.29C42.80 7.29 43.33 7.92 43.46 9.10L40.18 9.10C40.35 7.87 40.98 7.29 41.87 7.29ZM50.57 5.95C50.15 5.95 49.66 6.12 49.29 6.45L48.71 7.49L48.71 6.13L46.77 6.13L46.77 13.58L48.71 13.58L48.71 10.16C48.71 8.16 49.50 7.45 51.11 7.56L51.11 6.01C50.95 5.96 50.79 5.95 50.57 5.95ZM60.83 3.92L58.91 3.92L58.91 8.08L54.39 8.08L54.39 3.92L52.46 3.92L52.46 13.58L54.39 13.58L54.39 9.62L58.91 9.62L58.91 13.58L60.83 13.58ZM65.98 5.94C63.50 5.94 62.12 7.59 62.12 9.86C62.12 12.11 63.50 13.78 65.98 13.78C68.46 13.78 69.85 12.11 69.85 9.86C69.85 7.59 68.46 5.94 65.98 5.94ZM65.98 12.42C64.82 12.42 64.12 11.45 64.12 9.86C64.12 8.25 64.82 7.29 65.98 7.29C67.14 7.29 67.84 8.25 67.84 9.86C67.84 11.45 67.14 12.42 65.98 12.42ZM82.17 7.78C82.00 6.76 81.19 5.94 79.77 5.94C79.10 5.94 78.60 6.08 78.18 6.37L77.45 7.35C77.15 6.54 76.38 5.94 75.17 5.94C74.49 5.94 74.00 6.08 73.58 6.37L73.04 7.27L73.04 6.13L71.11 6.13L71.11 13.58L73.04 13.58L73.04 9.76C73.04 8.04 73.51 7.29 74.38 7.29C75.12 7.29 75.56 7.71 75.66 8.48C75.70 8.86 75.71 9.27 75.71 9.70L75.71 13.58L77.63 13.58L77.63 9.76C77.63 8.04 78.12 7.29 78.99 7.29C79.73 7.29 80.15 7.71 80.25 8.48C80.29 8.86 80.30 9.27 80.30 9.70L80.30 13.58L82.24 13.58L82.24 9.14C82.24 8.54 82.22 8.16 82.17 7.78ZM90.69 9.70C90.69 7.67 89.49 5.94 87.21 5.94C84.92 5.94 83.43 7.60 83.43 9.88C83.43 12.50 85.01 13.78 87.05 13.78C88.80 13.78 90.20 12.89 90.58 11.16L88.65 11.16C88.52 11.96 87.92 12.42 87.09 12.42C86.20 12.42 85.50 11.93 85.37 10.36L90.66 10.36C90.69 10.11 90.69 9.88 90.69 9.70ZM87.12 7.29C88.05 7.29 88.58 7.92 88.70 9.10L85.43 9.10C85.60 7.87 86.23 7.29 87.12 7.29Z"></path></g><defs data-v-423bf9ae=""><linearGradient data-v-423bf9ae="" gradientTransform="rotate(25)" id="624641e6-863b-4ac9-8808-ba213c108995" x1="0%" y1="0%" x2="100%" y2="0%"><stop data-v-423bf9ae="" offset="0%" style="stop-color: rgb(106, 49, 48); stop-opacity: 1;"></stop><stop data-v-423bf9ae="" offset="100%" style="stop-color: rgb(205, 138, 137); stop-opacity: 1;"></stop></linearGradient></defs><g data-v-423bf9ae="" id="be436820-9c8a-438d-b5c4-71357be33a4b" transform="matrix(1.3547197936536555,0,0,1.3547197936536555,204.7601492516819,-21.98589651790543)" stroke="none" fill="url(#624641e6-863b-4ac9-8808-ba213c108995)"><switch><g><path d="M62.7 39.6c-1.2-.1-2.3.5-2.9 1.6l-5.1 9.6c-1.4-.2-3-.2-4.7-.2-1.8 0-3.3.1-4.7.2l-5.1-9.6c-.6-1.1-1.7-1.7-2.9-1.6-1.2.1-2.2.9-2.6 2.1-3.3 10.3-3.8 16.9-1.5 19.5.3.4.7.6 1.1.9v6.4c0 1.5-.2 3-.5 4.9-.1.5-.1 1-.1 1.6 0 4.6 2.1 7.3 6.1 8 1.2.2 2.4.2 3.5.3h1.2c1.6 0 3.2-.7 4.6-2 .3-.3.7-.7.9-1.1.3.4.6.7.9 1.1 1.4 1.4 3.1 2.1 4.8 2h1c1.1 0 2.3 0 3.5-.3 4.1-.7 6.1-3.4 6.1-8 0-.6 0-1.1-.1-1.6-.3-1.8-.5-3.3-.5-4.9v-2.6-3.7c.4-.3.8-.5 1.1-.9 2.3-2.6 1.8-9.1-1.5-19.5-.3-1.3-1.4-2.1-2.6-2.2zM35.3 56.4c0-2.5.6-6.6 2.3-12.4l3.9 7.4c-2 .6-3.5 1.4-4.7 2.6-.6.7-1.1 1.5-1.5 2.4zm24.3 22.9c-.9.2-1.9.2-2.9.2h-1.1c-.8 0-1.5-.3-2.2-1-.9-.9-1.4-2-1.5-2.7l1.6-2.2c1-1.4 0-3.3-1.7-3.3h-3.6c-1.7 0-2.6 1.9-1.7 3.3l1.6 2.2c-.2.7-.6 1.8-1.5 2.7-.7.7-1.4.9-2.2 1h-1.1c-1 0-2 0-2.9-.2-1.5-.3-3.2-.9-3.2-4.5 0-.3 0-.7.1-1 .3-1.7.6-3.6.5-5.5v-2.6c0-4.3-.1-7.4 1.7-9.2 1.6-1.6 5.1-2.4 10.5-2.4 5.5 0 8.9.8 10.5 2.4 1.8 1.8 1.8 4.9 1.7 9.2v2.6c0 1.9.2 3.8.5 5.5.1.3.1.6.1 1 0 3.6-1.6 4.2-3.2 4.5zM63 54c-1.1-1.2-2.7-2-4.7-2.6l4-7.4c1.7 5.8 2.4 9.9 2.3 12.4-.3-.9-.8-1.7-1.6-2.4z"></path><circle cx="55.4" cy="63.2" r="2.6"></circle><circle cx="44.6" cy="63.2" r="2.6"></circle><path d="M96.8 46.1l-46-29c-.5-.3-1.1-.3-1.6 0l-46 29c-.7.4-.9 1.3-.5 2L4.6 51c.4.7 1.3.9 2 .5l11.2-7.1v37.3c0 .8.6 1.4 1.4 1.4h3.5c.8 0 1.4-.6 1.4-1.4V40.4L50 24.1l25.9 16.3v41.3c0 .8.6 1.4 1.4 1.4h3.5c.8 0 1.4-.6 1.4-1.4V44.4l11.2 7.1c.7.4 1.6.2 2-.5l1.9-2.9c.4-.7.2-1.6-.5-2z"></path></g></switch></g><!----></svg>