<svg data-v-fde0c5aa="" xmlns="http://www.w3.org/2000/svg" viewBox="0 0 300 300" class="font"><!----><defs data-v-fde0c5aa=""><!----></defs><rect data-v-fde0c5aa="" fill="#FFFFFF" x="0" y="0" width="300px" height="300px" class="logo-background-square"></rect><defs data-v-fde0c5aa=""><!----></defs><g data-v-fde0c5aa="" id="7f6dd5c6-7d55-4c5b-a158-b97d285296cb" fill="#3B1B1B" transform="matrix(2.459749485630056,0,0,2.459749485630056,36.92531314296243,128.231217286754)"><path d="M3.18 5.43L8.08 5.43L8.08 3.92L1.25 3.92L1.25 13.58L3.18 13.58L3.18 9.51L7.59 9.51L7.59 7.98L3.18 7.98ZM12.54 5.94C10.07 5.94 8.68 7.59 8.68 9.86C8.68 12.11 10.07 13.78 12.54 13.78C15.02 13.78 16.41 12.11 16.41 9.86C16.41 7.59 15.02 5.94 12.54 5.94ZM12.54 12.42C11.38 12.42 10.68 11.45 10.68 9.86C10.68 8.25 11.38 7.29 12.54 7.29C13.71 7.29 14.41 8.25 14.41 9.86C14.41 11.45 13.71 12.42 12.54 12.42ZM21.46 5.95C21.04 5.95 20.55 6.12 20.19 6.45L19.60 7.49L19.60 6.13L17.67 6.13L17.67 13.58L19.60 13.58L19.60 10.16C19.60 8.16 20.40 7.45 22.01 7.56L22.01 6.01C21.84 5.96 21.69 5.95 21.46 5.95ZM29.68 9.70C29.68 7.67 28.48 5.94 26.19 5.94C23.91 5.94 22.41 7.60 22.41 9.88C22.41 12.50 24.00 13.78 26.04 13.78C27.79 13.78 29.19 12.89 29.57 11.16L27.64 11.16C27.51 11.96 26.91 12.42 26.08 12.42C25.19 12.42 24.49 11.93 24.36 10.36L29.65 10.36C29.68 10.11 29.68 9.88 29.68 9.70ZM26.11 7.29C27.03 7.29 27.57 7.92 27.69 9.10L24.42 9.10C24.58 7.87 25.21 7.29 26.11 7.29ZM38.07 6.13L35.98 6.13L34.15 12.12L32.27 6.13L30.13 6.13L33.03 13.58L35.18 13.58ZM45.44 9.70C45.44 7.67 44.24 5.94 41.96 5.94C39.68 5.94 38.18 7.60 38.18 9.88C38.18 12.50 39.76 13.78 41.80 13.78C43.55 13.78 44.95 12.89 45.33 11.16L43.40 11.16C43.27 11.96 42.67 12.42 41.85 12.42C40.95 12.42 40.25 11.93 40.12 10.36L45.42 10.36C45.44 10.11 45.44 9.88 45.44 9.70ZM41.87 7.29C42.80 7.29 43.33 7.92 43.46 9.10L40.18 9.10C40.35 7.87 40.98 7.29 41.87 7.29ZM50.57 5.95C50.15 5.95 49.66 6.12 49.29 6.45L48.71 7.49L48.71 6.13L46.77 6.13L46.77 13.58L48.71 13.58L48.71 10.16C48.71 8.16 49.50 7.45 51.11 7.56L51.11 6.01C50.95 5.96 50.79 5.95 50.57 5.95ZM60.83 3.92L58.91 3.92L58.91 8.08L54.39 8.08L54.39 3.92L52.46 3.92L52.46 13.58L54.39 13.58L54.39 9.62L58.91 9.62L58.91 13.58L60.83 13.58ZM65.98 5.94C63.50 5.94 62.12 7.59 62.12 9.86C62.12 12.11 63.50 13.78 65.98 13.78C68.46 13.78 69.85 12.11 69.85 9.86C69.85 7.59 68.46 5.94 65.98 5.94ZM65.98 12.42C64.82 12.42 64.12 11.45 64.12 9.86C64.12 8.25 64.82 7.29 65.98 7.29C67.14 7.29 67.84 8.25 67.84 9.86C67.84 11.45 67.14 12.42 65.98 12.42ZM82.17 7.78C82.00 6.76 81.19 5.94 79.77 5.94C79.10 5.94 78.60 6.08 78.18 6.37L77.45 7.35C77.15 6.54 76.38 5.94 75.17 5.94C74.49 5.94 74.00 6.08 73.58 6.37L73.04 7.27L73.04 6.13L71.11 6.13L71.11 13.58L73.04 13.58L73.04 9.76C73.04 8.04 73.51 7.29 74.38 7.29C75.12 7.29 75.56 7.71 75.66 8.48C75.70 8.86 75.71 9.27 75.71 9.70L75.71 13.58L77.63 13.58L77.63 9.76C77.63 8.04 78.12 7.29 78.99 7.29C79.73 7.29 80.15 7.71 80.25 8.48C80.29 8.86 80.30 9.27 80.30 9.70L80.30 13.58L82.24 13.58L82.24 9.14C82.24 8.54 82.22 8.16 82.17 7.78ZM90.69 9.70C90.69 7.67 89.49 5.94 87.21 5.94C84.92 5.94 83.43 7.60 83.43 9.88C83.43 12.50 85.01 13.78 87.05 13.78C88.80 13.78 90.20 12.89 90.58 11.16L88.65 11.16C88.52 11.96 87.92 12.42 87.09 12.42C86.20 12.42 85.50 11.93 85.37 10.36L90.66 10.36C90.69 10.11 90.69 9.88 90.69 9.70ZM87.12 7.29C88.05 7.29 88.58 7.92 88.70 9.10L85.43 9.10C85.60 7.87 86.23 7.29 87.12 7.29Z"></path></g><!----><!----></svg>